<?xml version="1.0" encoding="UTF-8" standalone="no"?>
<svg
  width="35"
  height="35"
  viewBox="0 0 35 35"
  version="1.1"
  xmlns="http://www.w3.org/2000/svg"
>
  <path
    d="m 23.139,21.675 c 0.276,-1.997 -1.252,-3.046 -3.331,-3.736 l 0.644,-2.705 -1.647,-0.396 -0.626,2.632 c -0.433,-0.101 -0.874,-0.202 -1.316,-0.295 l 0.635,-2.652 -1.647,-0.396 -0.644,2.705 c -0.359,-0.074 -0.709,-0.156 -1.049,-0.239 v 0 l -2.274,-0.552 -0.414,1.757 c 0,0 1.223,0.267 1.197,0.285 0.663,0.156 0.791,0.598 0.773,0.948 l -0.736,3.082 c 0,0 0.101,0.028 0.175,0.055 -0.055,-0.010 -0.110,-0.028 -0.175,-0.037 l -1.031,4.317 c -0.083,0.202 -0.285,0.506 -0.745,0.396 0.017,0.028 -1.197,-0.285 -1.197,-0.285 l -0.791,1.886 2.144,0.506 c 0.396,0.092 0.791,0.193 1.169,0.285 l -0.653,2.732 1.647,0.396 0.644,-2.705 c 0.451,0.120 0.884,0.220 1.316,0.322 l -0.644,2.696 1.647,0.396 0.653,-2.732 c 2.806,0.497 4.906,0.267 5.762,-2.274 0.690,-2.042 -0.074,-3.212 -1.546,-3.966 1.068,-0.258 1.868,-0.975 2.070,-2.428 z m -3.699,5.298 c -0.487,2.042 -3.929,0.975 -5.044,0.718 l 0.865,-3.625 c 1.114,0.267 4.685,0.782 4.178,2.907 z m 0.451,-5.289 c -0.442,1.859 -3.312,0.948 -4.232,0.727 l 0.782,-3.284 c 0.929,0.220 3.920,0.616 3.450,2.557 z"
    fill="currentColor"
  />
</svg>
