<?xml version="1.0" encoding="UTF-8" standalone="no"?>
<svg
  width="35"
  height="35"
  viewBox="0 0 35 35"
  version="1.1"
  xmlns="http://www.w3.org/2000/svg"
>
  <g transform="translate(5, 10)">
    <path
      d="M 0.94,10.37 C 1.34,10.37 2.69,10.37 4.03,10.37 V 9.21 C 2.69,9.21 1.34,9.21 0.94,9.21 Z M 0.94,16.46 C 1.34,16.46 2.68,16.46 4.03,16.47 V 15.30 C 2.68,15.30 1.34,15.30 0.94,15.30 Z M 4.04,12.31 H 0.94 C 0.94,12.69 0.94,13.08 0.94,13.46 H 4.04 C 4.04,13.08 4.04,12.69 4.04,12.31 Z M 1.43,7.39 V 5.39 C 1.08,5.39 0.72,5.39 0.37,5.39 V 7.39 C 0.72,7.39 1.07,7.39 1.43,7.39 Z M 1.42,18.52 V 16.52 C 1.07,16.52 0.72,16.52 0.37,16.52 V 18.52 C 0.72,18.52 1.07,18.52 1.42,18.52 Z"
      stroke="currentColor"
      stroke-width="0.8"
      fill="none"
      stroke-linecap="round"
      stroke-linejoin="round"
    />
  </g>
</svg>
